<svg width="90" height="90" viewBox="0 0 90 90" fill="none" xmlns="http://www.w3.org/2000/svg">
<path d="M68.9062 0H21.0938C9.44399 0 0 9.44399 0 21.0938V68.9062C0 80.556 9.44399 90 21.0938 90H68.9062C80.556 90 90 80.556 90 68.9062V21.0938C90 9.44399 80.556 0 68.9062 0Z" fill="#E4E4E4"/>
<path d="M18.8975 36.0882L19.9037 47.3179H45.0337V36.0882H18.8975ZM45.0334 13.3594H16.875L17.8959 24.589H45.0334V13.3594ZM45.0334 76.9363V65.2528L44.9842 65.2658L32.4777 61.8891L31.6782 52.9327H20.4054L21.9786 70.5649L44.9817 76.9507L45.0334 76.9363Z" fill="#0277BD"/>
<path d="M58.8225 47.3179L57.5189 61.8817L44.9945 65.2623V76.9451L68.0159 70.5649L68.1846 68.6675L70.8234 39.1039L71.0973 36.0882L73.1248 13.3594H44.9945V24.589H60.818L59.7963 36.0882H44.9945V47.3179H58.8225Z" fill="#0277BD"/>
</svg>
