<svg width="88" height="88" viewBox="0 0 88 88" fill="none" xmlns="http://www.w3.org/2000/svg">
<path d="M67.375 0H20.625C9.23413 0 0 9.23413 0 20.625V67.375C0 78.7659 9.23413 88 20.625 88H67.375C78.7659 88 88 78.7659 88 67.375V20.625C88 9.23413 78.7659 0 67.375 0Z" fill="#E4E4E4"/>
<path d="M48.533 41.9798H55.6545V35.5365H48.533V41.9798ZM40.0555 41.9798H47.1766V35.5365H40.0555V41.9798ZM31.747 41.9798H38.8685V35.5365H31.747V41.9798ZM23.4386 41.9798H30.3909V35.5365H23.4389L23.4386 41.9798ZM14.961 41.9798H22.0825V35.5365H14.961V41.9798ZM23.4389 34.1801H30.3906V27.7372H23.4389V34.1801ZM31.7474 34.1801H38.8685V27.7372H31.747L31.7474 34.1801ZM40.0555 34.1801H47.1766V27.7372H40.0555V34.1801ZM40.0555 26.3804H47.1766V19.9375H40.0555V26.3804ZM78.375 39.0978C78.375 39.0978 75.3228 36.2151 69.0494 37.2326C68.3712 32.3153 63.1149 29.4329 63.1149 29.4329C63.1149 29.4329 58.1979 35.3674 61.7585 41.9801C60.7413 42.4889 59.0456 43.1671 56.5022 43.1671H9.87456C9.02653 46.3887 9.02653 67.7524 32.4252 67.7524C49.2112 67.7524 61.7585 59.9531 67.693 45.7102C76.5098 46.3884 78.375 39.0978 78.375 39.0978Z" fill="#2396ED"/>
</svg>
