<svg width="88" height="88" viewBox="0 0 88 88" fill="none" xmlns="http://www.w3.org/2000/svg">
<path d="M86.3399 40.0805L47.918 1.65949C45.7068 -0.553163 42.1181 -0.553163 39.9034 1.65949L31.9257 9.6387L42.0463 19.7595C44.399 18.9654 47.0955 19.498 48.97 21.3726C50.8543 23.259 51.3827 25.9785 50.5692 28.3389L60.3231 38.0937C62.6828 37.2801 65.4064 37.8058 67.29 39.6936C69.9251 42.3266 69.9251 46.595 67.29 49.2294C66.6638 49.8559 65.9203 50.3529 65.102 50.692C64.2837 51.0311 63.4065 51.2056 62.5207 51.2056C61.6349 51.2056 60.7578 51.0311 59.9395 50.692C59.1212 50.3529 58.3777 49.8559 57.7515 49.2294C56.8109 48.2879 56.1697 47.0892 55.9086 45.7842C55.6475 44.4791 55.7781 43.126 56.2841 41.8951L47.1882 32.7991L47.1868 56.7388C47.8468 57.0637 48.4493 57.4941 48.9707 58.0131C51.6044 60.6461 51.6044 64.9132 48.9707 67.5518C46.3363 70.1848 42.0665 70.1848 39.4349 67.5518C36.8012 64.9139 36.8012 60.6468 39.4349 58.0131C40.0665 57.3818 40.8168 56.8819 41.6427 56.5422V32.3808C40.8159 32.0425 40.0652 31.5421 39.4349 30.9092C37.4398 28.9154 36.9595 25.9875 37.9828 23.5364L28.0051 13.5586L1.65996 39.9027C0.597087 40.9659 0 42.4077 0 43.9111C0 45.4145 0.597087 46.8563 1.65996 47.9195L40.0825 86.3405C42.2952 88.5532 45.8825 88.5532 48.0986 86.3405L86.3406 48.098C87.4033 47.0345 88.0001 45.5925 88 44.0891C87.9999 42.5857 87.4028 41.1438 86.3399 40.0805Z" fill="#E4E4E4"/>
</svg>
