<svg width="90" height="88" viewBox="0 0 90 88" fill="none" xmlns="http://www.w3.org/2000/svg">
<path d="M45 0C39.0905 0 33.2389 1.16635 27.7792 3.43245C22.3196 5.69856 17.3588 9.02004 13.1802 13.2073C4.74106 21.6637 0 33.1331 0 45.0924C0 65.0232 12.915 81.9329 30.78 87.9302C33.03 88.2909 33.75 86.893 33.75 85.6755V78.0549C21.285 80.7605 18.63 72.0125 18.63 72.0125C16.56 66.7818 13.635 65.384 13.635 65.384C9.54 62.5882 13.95 62.6784 13.95 62.6784C18.45 62.9941 20.835 67.3229 20.835 67.3229C24.75 74.177 31.365 72.1478 33.93 71.0656C34.335 68.1346 35.505 66.1505 36.765 65.0232C26.775 63.8959 16.29 60.018 16.29 42.8378C16.29 37.8325 18 33.8193 20.925 30.6177C20.475 29.4904 18.9 24.8008 21.375 18.7133C21.375 18.7133 25.155 17.4958 33.75 23.3128C37.305 22.3207 41.175 21.8247 45 21.8247C48.825 21.8247 52.695 22.3207 56.25 23.3128C64.845 17.4958 68.625 18.7133 68.625 18.7133C71.1 24.8008 69.525 29.4904 69.075 30.6177C72 33.8193 73.71 37.8325 73.71 42.8378C73.71 60.0631 63.18 63.8508 53.145 64.9781C54.765 66.376 56.25 69.1266 56.25 73.3202V85.6755C56.25 86.893 56.97 88.336 59.265 87.9302C77.13 81.8878 90 65.0232 90 45.0924C90 39.1708 88.836 33.3071 86.5746 27.8363C84.3131 22.3654 80.9984 17.3945 76.8198 13.2073C72.6412 9.02004 67.6804 5.69856 62.2208 3.43245C56.7611 1.16635 50.9095 0 45 0Z" fill="#E4E4E4"/>
</svg>
