<svg width="90" height="90" viewBox="0 0 90 90" fill="none" xmlns="http://www.w3.org/2000/svg">
<path d="M68.9062 0H21.0938C9.44399 0 0 9.44399 0 21.0938V68.9062C0 80.556 9.44399 90 21.0938 90H68.9062C80.556 90 90 80.556 90 68.9062V21.0938C90 9.44399 80.556 0 68.9062 0Z" fill="#E4E4E4"/>
<path d="M16.875 13.3594L19.902 47.3179H58.8234L57.5174 61.8831L44.9856 65.2714L32.4773 61.888L31.641 52.5357H20.3695L21.9814 70.5642L44.9831 76.9528L68.014 70.5642L71.1018 36.0896H30.1725L29.1449 24.59H72.1192L73.125 13.3594H16.875Z" fill="#E14E1D"/>
<path d="M45 13.3594H16.875L19.902 47.3179H45V36.0896H30.1725L29.1449 24.59H45V13.3594ZM45 65.2665L44.9856 65.2714L32.4773 61.888L31.641 52.5357H20.3695L21.9814 70.5642L44.9831 76.9528L45.0004 76.9479L45 65.2665Z" fill="#E14E1D"/>
</svg>
