<svg width="90" height="90" viewBox="0 0 90 90" fill="none" xmlns="http://www.w3.org/2000/svg">
<path d="M68.9062 0H21.0938C9.44399 0 0 9.44399 0 21.0938V68.9062C0 80.556 9.44399 90 21.0938 90H68.9062C80.556 90 90 80.556 90 68.9062V21.0938C90 9.44399 80.556 0 68.9062 0Z" fill="#E4E4E4"/>
<path d="M23.6642 75.2106L30.5513 71.0425C31.8802 73.3983 33.0889 75.3917 35.9883 75.3917C38.7674 75.3917 40.5195 74.3047 40.5195 70.0761V41.319H48.9774V70.1956C48.9774 78.9555 43.8425 82.9429 36.3507 82.9429C29.5849 82.9429 25.6576 79.4389 23.6639 75.2099M53.5713 74.3043L60.4577 70.3172C62.2707 73.2777 64.6269 75.4525 68.795 75.4525C72.2997 75.4525 74.5343 73.7003 74.5343 71.2837C74.5343 68.384 72.2386 67.3567 68.3721 65.6657L66.2581 64.759C60.1561 62.1617 56.1082 58.8992 56.1082 52.0121C56.1082 45.6685 60.9415 40.8352 68.4934 40.8352C73.8702 40.8352 77.7367 42.7083 80.5154 47.6017L73.9303 51.8307C72.4801 49.233 70.91 48.2061 68.4934 48.2061C66.0163 48.2061 64.4455 49.7768 64.4455 51.8307C64.4455 54.3679 66.0163 55.3952 69.6409 56.9663L71.7552 57.8723C78.9443 60.9537 82.9922 64.0946 82.9922 71.1627C82.9922 78.7755 77.0114 82.9436 68.9764 82.9436C61.1229 82.9436 56.0481 79.1981 53.5713 74.3043Z" fill="#F0DB4F"/>
</svg>
