<svg width="88" height="88" viewBox="0 0 88 88" fill="none" xmlns="http://www.w3.org/2000/svg">
<path d="M67.375 0H20.625C9.23413 0 0 9.23413 0 20.625V67.375C0 78.7659 9.23413 88 20.625 88H67.375C78.7659 88 88 78.7659 88 67.375V20.625C88 9.23413 78.7659 0 67.375 0Z" fill="#E4E4E4"/>
<path d="M58.8407 36.9844C55.2186 21.0066 47.6698 16.753 45.7441 13.7462C44.9496 12.4218 44.2462 11.0449 43.6387 9.625C43.5369 11.0447 43.3499 11.9384 42.1434 13.0151C39.721 15.1748 29.4325 23.5589 28.5666 41.7134C27.7598 58.6403 41.0104 69.0776 42.7607 70.1566C44.1069 70.819 45.7462 70.1707 46.5461 69.5626C52.9333 65.1791 61.6604 53.4923 58.8475 36.9844" fill="#10AA50"/>
<path d="M44.1873 61.1431C43.8539 65.3327 43.615 67.7671 42.768 70.1613C42.768 70.1613 43.3238 74.1499 43.7143 78.3749H45.0959C45.4258 75.3997 45.929 72.4462 46.6029 69.5295C44.8144 68.6495 44.2561 64.8195 44.1873 61.1431Z" fill="#B8C4C2"/>
<path d="M46.6005 69.5321C44.793 68.6971 44.2702 64.7863 44.1897 61.1432C44.6365 55.1334 44.7668 49.1043 44.5802 43.0809C44.4854 39.9204 44.6249 13.8078 43.8016 9.98462C44.3645 11.2797 45.0135 12.5356 45.7442 13.7439C47.6699 16.7531 55.221 21.0066 58.8407 36.9845C61.6605 53.4642 52.9808 65.1201 46.6005 69.5321Z" fill="#12924F"/>
</svg>
