<svg width="90" height="89" viewBox="0 0 90 89" fill="none" xmlns="http://www.w3.org/2000/svg">
<path d="M52.9614 0.000699697C52.33 0.000699697 51.6986 0.139937 51.1375 0.349143C52.33 1.1174 52.9614 2.16413 53.3123 3.35079C53.3123 3.49073 53.3826 3.63067 53.3826 3.76991C53.3826 3.90984 53.4529 4.04908 53.4529 4.18832C53.5232 6.21321 52.8911 6.49238 52.4706 7.67905C51.7689 9.21416 51.9799 10.8899 52.8215 12.2158C52.8918 12.3557 52.9621 12.5657 53.1021 12.7049C52.1901 6.84152 57.1 6.0033 58.012 4.18832C58.0823 2.58324 56.7499 1.53651 55.6973 0.768255C54.6454 0.139937 53.8031 0 52.9621 0L52.9614 0.000699697ZM60.3281 1.25594C60.2577 1.81428 60.3281 1.67505 60.2577 1.95422C60.2577 2.16343 60.2577 2.37263 60.1874 2.58254C60.1171 2.79175 60.1171 2.93168 60.0468 3.14089C59.9765 3.35009 59.9069 3.49003 59.8366 3.69924C59.7663 3.83917 59.696 3.97841 59.6256 4.18762C59.556 4.25759 59.4857 4.39752 59.4161 4.46749C59.3458 4.53746 59.3458 4.60673 59.2755 4.6767C59.1349 4.81664 59.0645 5.02514 58.9246 5.16508L58.5042 5.58419C58.3635 5.72413 58.2229 5.86337 58.083 5.93263C57.5922 6.28248 57.0311 6.56095 56.5396 6.91009C56.399 7.05003 56.1888 7.12 56.0488 7.25924C55.9082 7.39917 55.7676 7.46914 55.6277 7.60838L55.2072 8.02679C55.0666 8.16673 54.926 8.30667 54.8556 8.51587C54.7157 8.65581 54.6454 8.86502 54.5055 9.00425C54.4352 9.21416 54.3649 9.3534 54.2249 9.5626C54.1546 9.77251 54.0843 9.91245 54.014 10.121C53.9437 10.3309 53.8741 10.5401 53.8741 10.6793C53.8741 10.7493 53.8741 10.8892 53.8038 10.9592C53.8038 11.0291 53.8038 11.1684 53.7335 11.2383V12.2151C53.7335 12.425 53.7335 12.565 53.8038 12.7735C53.8038 12.9834 53.8741 13.1233 53.9444 13.3325C54.0147 13.5417 54.085 13.681 54.1553 13.8909C54.2249 14.0308 54.2953 14.1001 54.2953 14.24L48.9635 12.2151C48.0841 11.95 47.1952 11.7173 46.2986 11.5175C45.8071 11.3776 45.3164 11.3076 44.8249 11.1677C43.433 10.8904 42.0284 10.681 40.616 10.5401H40.4753C39.0726 10.4001 37.7402 10.3302 36.3375 10.3302C35.2849 10.3302 34.3026 10.4001 33.3211 10.4701C31.9176 10.5401 30.5156 10.75 29.1122 10.9592L28.0596 11.1684C27.3586 11.3083 26.6568 11.4476 25.9551 11.6568C25.6043 11.7267 25.2541 11.8667 24.9033 11.9366C24.5524 12.0759 24.2015 12.2151 23.921 12.355C23.6404 12.495 23.4302 12.565 23.1497 12.7042C23.0793 12.7042 23.0793 12.7042 23.009 12.7742C22.7981 12.9134 22.5886 12.9834 22.3776 13.1226C22.3073 13.1226 22.237 13.1926 22.237 13.1926C21.9572 13.3325 21.7462 13.4724 21.536 13.5417C21.3954 13.6117 21.1851 13.6817 21.0452 13.7516C20.9749 13.8209 20.9046 13.8209 20.8343 13.8909C20.624 14.0308 20.4138 14.1001 20.2029 14.2393C19.9926 14.3792 19.7824 14.4492 19.6418 14.5891C19.5012 14.7284 19.2909 14.7983 19.151 14.9376C19.151 14.9376 19.0807 14.9376 19.0807 15.0076C18.9401 15.0775 18.8001 15.2175 18.6602 15.3567L18.5899 15.4267C18.4493 15.4966 18.379 15.6359 18.239 15.7058C18.1687 15.7058 18.1687 15.7758 18.0984 15.7758C17.9585 15.8458 17.8882 15.985 17.7483 16.0543C17.7483 16.1243 17.6779 16.1243 17.6779 16.1243L17.2568 16.5434L17.1865 16.6133L16.766 17.0317C16.766 17.0317 16.766 17.1017 16.6957 17.1017L16.3448 17.4509C16.2745 17.5208 16.2042 17.5208 16.2042 17.5908L15.7837 18.0092C15.7837 18.0792 15.7134 18.0792 15.7134 18.1491L15.1523 18.7068L15.082 18.7768C14.7319 19.1959 14.3107 19.545 13.8902 19.8942C13.4698 20.2433 13.0479 20.5917 12.5571 20.9409C12.0663 21.29 11.6451 21.5692 11.1544 21.8484C10.6636 22.1276 10.1721 22.3368 9.68132 22.5467C9.18983 22.7559 8.69905 22.9651 8.20827 23.105C7.22601 23.3149 6.24374 23.7333 5.4021 23.8026C5.4021 23.4542 5.19117 23.5234 4.98093 23.5234C4.7707 23.5934 4.56046 23.5934 4.41984 23.6634C4.2089 23.7333 4.06898 23.8033 3.85875 23.8733C3.65882 23.9378 3.4697 24.0316 3.29765 24.1517C3.15703 24.2917 2.94679 24.3617 2.80687 24.5016C2.66625 24.6408 2.45531 24.7801 2.31539 24.92C2.17476 25.0599 1.96453 25.1992 1.82461 25.3384C1.68398 25.4784 1.54336 25.6183 1.40344 25.8275C1.26281 26.0367 1.12289 26.1759 1.05258 26.3858C0.912655 26.5258 0.842343 26.735 0.702421 26.9442C0.632109 27.1541 0.491484 27.3626 0.421171 27.5725L0.210937 28.2008C0.140625 28.41 0.140625 28.5493 0.0703124 28.7592V28.8291C0 29.0391 0 29.3175 0 29.4575C0.0703124 29.3875 0.0703124 29.5274 0.0703124 29.6667V29.9458C0.0703124 30.0858 0.140625 30.225 0.140625 30.3643C0.210937 30.5042 0.210937 30.6441 0.28125 30.7834C0.350859 30.9233 0.421171 31.0625 0.561093 31.2025C0.631406 31.3424 0.77203 31.4817 0.842343 31.6209C0.982265 31.7608 1.12219 31.9008 1.26281 31.97C1.40344 32.11 1.54336 32.2499 1.68328 32.3192C2.24437 32.8076 2.385 32.9475 3.08672 33.3659C3.22734 33.4359 3.29695 33.5058 3.43757 33.5758H3.50789V33.7157C3.50789 33.9243 3.5782 34.0642 3.64781 34.2734C3.71812 34.4833 3.78843 34.6925 3.85875 34.8317L4.06828 35.2509C4.06828 35.3208 4.13859 35.3208 4.13859 35.3908C4.2089 35.6 4.34953 35.7392 4.41984 35.8792C4.55976 36.0191 4.63007 36.2283 4.76999 36.3676L5.19117 36.7867L5.61163 37.2051H5.68195C5.82257 37.345 5.96249 37.415 6.10312 37.5549C6.24374 37.6949 6.45398 37.7641 6.5939 37.8334C6.73452 37.9034 6.94476 38.0433 7.15499 38.1133C7.29562 38.1832 7.43624 38.2525 7.64577 38.2525C7.64577 38.2525 7.71609 38.2525 7.71609 38.3225C7.7864 38.3225 7.92702 38.3924 7.99733 38.3924C7.92702 39.6484 7.92702 40.8351 8.06765 41.2542C8.27718 41.7425 9.32976 40.2767 10.312 38.6716C10.1714 40.2767 10.1011 42.1617 10.312 42.72C10.5926 43.2784 11.925 41.4634 13.1878 39.5084C29.6022 35.7392 44.6139 47.0476 46.2276 63.0333C45.9464 60.52 42.8596 59.1241 41.3873 59.4733C40.6856 61.1483 39.4931 63.3824 37.5996 64.7083C37.7402 63.1723 37.6699 61.6367 37.3886 60.1016C36.8978 62.1957 35.9156 64.2199 34.5129 65.895C32.3381 66.0349 30.0937 64.9875 28.9708 63.3824C28.9005 63.3124 28.8302 63.1725 28.7606 63.1025C28.6903 62.9633 28.62 62.7541 28.5497 62.6142C28.4793 62.4742 28.4097 62.265 28.4097 62.1258V61.2883C28.4097 61.1483 28.48 60.9384 28.5504 60.7992C28.6207 60.6599 28.6207 60.45 28.691 60.3108C28.7606 60.1709 28.8309 59.9617 28.9708 59.8224C29.392 58.705 29.392 57.7975 28.62 57.3091L28.1995 57.0992C28.1292 57.0992 27.9886 57.03 27.9183 57.03C27.8479 57.03 27.7783 56.96 27.708 56.96C27.5681 56.89 27.3579 56.89 27.2172 56.8201C27.0766 56.7501 26.8664 56.7501 26.7265 56.7501C26.5858 56.7501 26.3749 56.6808 26.235 56.6808H25.8848C25.6739 56.6808 25.5333 56.6808 25.3933 56.7508C25.2527 56.7508 25.0425 56.8208 24.9026 56.8208C24.7619 56.8907 24.5517 56.8907 24.4111 56.9607C24.2711 57.03 24.1305 57.0999 23.9203 57.1692L23.4991 57.3791C18.0977 60.8691 21.3251 69.1058 24.9729 71.4792C23.5694 71.7591 22.1667 72.0375 21.7455 72.3174L21.6752 72.3874C22.6575 73.015 23.7101 73.5041 24.8322 73.9225C26.3053 74.4116 27.919 74.83 28.62 75.0399C30.5142 75.4583 32.4787 75.5982 34.4425 75.4583C44.6842 74.76 53.1021 66.9424 54.6447 56.7508C54.715 56.9607 54.715 57.1692 54.7853 57.3791C54.8556 57.7975 54.926 58.2166 54.9963 58.705C55.0666 58.9149 55.0666 59.1241 55.0666 59.3333V59.4033C55.0666 59.6132 55.1362 59.8224 55.1362 60.0316C55.1362 60.3108 55.2065 60.52 55.2065 60.7992V63.7309C55.2065 63.9408 55.1362 64.0807 55.1362 64.2899V64.4991C55.1362 64.709 55.0659 64.9182 55.0659 65.1974C54.9956 65.4066 54.9956 65.6158 54.9253 65.8257V65.8957C54.8549 66.1049 54.8549 66.3141 54.7853 66.5233V66.5933C54.715 66.8032 54.715 67.0124 54.6447 67.2216V67.2916L54.4345 67.9199V67.9898C54.3642 68.1991 54.2938 68.4782 54.2242 68.6874C54.1539 68.8973 54.0836 69.1065 53.943 69.3857C53.8734 69.5949 53.8031 69.8741 53.6631 70.0833C53.5928 70.2932 53.4522 70.5024 53.3819 70.7816C53.3123 70.9915 53.1717 71.2007 53.1021 71.4099C53.1021 71.4799 53.0317 71.5498 53.0317 71.5498C53.0317 71.5498 53.0317 71.6198 52.9614 71.6198C51.4884 74.6208 49.244 77.2733 46.4378 79.3674C46.2269 79.5074 46.087 79.6473 45.8767 79.7865C45.8064 79.8565 45.7361 79.8565 45.7361 79.9265C45.5955 80.0657 45.3853 80.1357 45.2453 80.2749L45.3157 80.4149C45.6658 80.3449 45.9471 80.3449 46.2972 80.2749C46.9286 80.205 47.4897 80.065 48.1211 79.9258C48.2617 79.9258 48.4727 79.8558 48.6126 79.7858C48.7532 79.7858 48.8228 79.7159 48.9628 79.7159C49.1027 79.7159 49.3143 79.6466 49.4542 79.6466C49.5949 79.5766 49.7348 79.5766 49.8747 79.5067C52.1901 78.949 54.4345 78.1808 56.6092 77.2733C52.8911 82.2991 47.9812 86.3482 42.2289 89C44.8945 88.7908 47.56 88.3724 50.1553 87.6041C59.4747 84.8809 67.3389 78.6104 72.0414 70.1533C71.0598 75.4583 68.9547 80.5541 65.7984 85.0216C68.0434 83.5558 70.0776 81.81 71.9718 79.9258C77.1623 74.5508 80.5991 67.64 81.722 60.3108C82.494 63.9408 82.7746 67.71 82.4237 71.4099C99.189 48.165 83.8265 24.0825 77.3732 17.73C77.3732 17.6601 77.3029 17.6601 77.3029 17.5901C77.3029 17.87 77.3029 18.1484 77.2326 18.4283C77.1623 18.9867 77.0919 19.475 77.0216 19.9634C76.8817 20.4525 76.7418 21.0109 76.6012 21.4992C76.4605 21.9883 76.2503 22.4767 76.0401 22.9651C75.8298 23.4535 75.6189 23.9425 75.3384 24.3617C75.0578 24.7808 74.7773 25.2691 74.4967 25.6876C74.2162 26.106 73.8653 26.5251 73.5145 26.9442C73.1643 27.3633 72.8134 27.7117 72.3923 28.1309C72.1813 28.3408 71.9718 28.55 71.6912 28.6892C71.4803 28.8291 71.3397 28.9691 71.1295 29.1776C70.709 29.5274 70.2878 29.8059 69.797 30.0851C69.3759 30.365 68.8851 30.6441 68.3943 30.8533L66.9206 31.4817C66.4298 31.6909 65.939 31.8308 65.4475 31.97C64.9567 32.11 64.3956 32.2499 63.9041 32.3192C63.3431 32.3891 62.8523 32.4591 62.3615 32.5291C62.0099 32.5291 61.5895 32.5984 61.2386 32.5984C60.6775 32.5984 60.1867 32.5284 59.696 32.5284C59.1342 32.4584 58.6434 32.3884 58.1526 32.3185C57.6205 32.2538 57.1007 32.1129 56.6092 31.9001C57.1 31.8301 57.6611 31.8301 58.1526 31.6909C58.7137 31.6209 59.2045 31.481 59.696 31.3417C60.1867 31.2018 60.7478 31.0625 61.169 30.8533L62.642 30.225C63.1328 30.0151 63.554 29.7366 64.0448 29.4575C64.4659 29.1776 64.9567 28.8291 65.3779 28.55C65.7984 28.2001 66.2195 27.8517 66.5704 27.5025C66.9909 27.1534 67.3417 26.735 67.6926 26.3858C68.0434 25.9667 68.3943 25.5483 68.6748 25.1292C68.7452 25.0592 68.7452 24.9893 68.8155 24.9193C69.025 24.5709 69.3055 24.1517 69.5165 23.8033C69.7774 23.3518 70.0115 22.8855 70.2175 22.4067C70.4284 21.9184 70.6394 21.4293 70.7793 20.9409L71.1998 19.475C71.2701 18.9167 71.4107 18.4283 71.4107 17.9392C71.481 17.3809 71.481 16.8925 71.481 16.4034C71.481 16.055 71.481 15.6359 71.4107 15.2867C71.3404 14.7284 71.2701 14.24 71.1998 13.7509C71.1295 13.1926 70.9888 12.7042 70.8489 12.2151C70.7083 11.7267 70.498 11.2383 70.3581 10.7493C70.1472 10.2609 69.937 9.77251 69.7267 9.3534C69.4462 8.86502 69.2359 8.4459 68.9554 7.95752C68.6741 7.53841 68.324 7.1193 68.0434 6.70089C67.6926 6.28178 67.3417 5.93263 66.9909 5.51422C66.7806 5.30432 66.5704 5.09511 66.3595 4.95587C65.3076 4.11835 64.255 3.42006 63.1328 2.72178C62.9922 2.65181 62.8523 2.58184 62.642 2.51187C61.7301 1.74502 61.0291 1.53511 60.3281 1.25594Z" fill="#E4E4E4"/>
</svg>
