<svg width="88" height="88" viewBox="0 0 88 88" fill="none" xmlns="http://www.w3.org/2000/svg">
<path d="M67.375 0H20.625C9.23413 0 0 9.23413 0 20.625V67.375C0 78.7659 9.23413 88 20.625 88H67.375C78.7659 88 88 78.7659 88 67.375V20.625C88 9.23413 78.7659 0 67.375 0Z" fill="#E4E4E4"/>
<path d="M41.2079 10.6962C42.8988 9.72851 45.1009 9.72404 46.7901 10.6962C55.2883 15.4984 63.7892 20.2926 72.286 25.0976C73.8845 25.9979 74.9532 27.7764 74.937 29.6179V58.5084C74.9491 60.4261 73.7745 62.2473 72.0884 63.127C63.618 67.9027 55.1518 72.6839 46.6828 77.4596C44.9576 78.4462 42.7112 78.3702 41.0392 77.3025C38.4999 75.8306 35.9561 74.3655 33.4165 72.895C32.8974 72.5856 32.3124 72.3395 31.9459 71.8362C32.2701 71.3997 32.8493 71.3454 33.3199 71.1546C34.3797 70.8174 35.3535 70.2763 36.327 69.7514C36.5735 69.5829 36.8739 69.6476 37.1101 69.7981C39.2816 71.0432 41.4341 72.3247 43.6128 73.5577C44.0776 73.8262 44.5482 73.4697 44.9455 73.2484C53.2574 68.5503 61.5796 63.8705 69.8904 59.1711C70.1984 59.0229 70.3686 58.696 70.3435 58.3588C70.3493 48.8284 70.3449 39.2965 70.3466 29.7657C70.3817 29.3835 70.1603 29.0315 69.8141 28.8747C61.3733 24.121 52.9363 19.3604 44.4969 14.6056C44.3507 14.5052 44.1775 14.4513 44.0001 14.451C43.8227 14.4506 43.6494 14.504 43.5028 14.6039C35.0631 19.3604 26.6281 24.1258 18.1884 28.8788C17.8436 29.0359 17.6122 29.3821 17.6531 29.7657C17.6549 39.2965 17.6531 48.8284 17.6531 58.3602C17.6384 58.5249 17.6745 58.6901 17.7567 58.8335C17.8388 58.977 17.963 59.0918 18.1124 59.1625C20.3643 60.4395 22.6193 61.7076 24.8729 62.9805C26.1427 63.6636 27.7013 64.0699 29.1004 63.5464C30.3344 63.1036 31.1997 61.8438 31.1763 60.5334C31.188 51.0586 31.1704 41.5824 31.1849 32.1087C31.1539 31.6883 31.553 31.3408 31.9621 31.3806C33.0442 31.3731 34.1277 31.3659 35.2098 31.3834C35.6615 31.3731 35.9723 31.8261 35.9166 32.2496C35.9121 41.7846 35.9283 51.3195 35.9094 60.8541C35.9121 63.3954 34.8682 66.1606 32.5176 67.4039C29.6222 68.9037 26.0431 68.5857 23.1824 67.1475C20.706 65.9114 18.3424 64.4525 15.91 63.1284C14.2194 62.2535 13.0507 60.4251 13.0627 58.5087V29.6179C13.0448 27.7383 14.1565 25.9274 15.8041 25.0402C24.2731 20.261 32.7407 15.4777 41.2079 10.6962Z" fill="#81CD39"/>
<path d="M48.5969 30.7087C52.2905 30.4709 56.2446 30.5678 59.5683 32.3876C62.142 33.7819 63.5685 36.7085 63.6139 39.5675C63.5421 39.9529 63.1389 40.1656 62.7707 40.1392C61.6992 40.1378 60.6271 40.154 59.5556 40.132C59.1008 40.1495 58.8368 39.7305 58.7798 39.3286C58.4718 37.9605 57.7255 36.6058 56.4381 35.9458C54.4616 34.9565 52.1701 35.0063 50.0145 35.0269C48.4415 35.1101 46.7495 35.2466 45.4165 36.1716C44.3931 36.8725 44.0824 38.2874 44.4475 39.4269C44.7919 40.245 45.7362 40.509 46.5089 40.7524C50.9605 41.9167 55.6774 41.8005 60.0434 43.3326C61.8515 43.9572 63.6198 45.1717 64.2385 47.0644C65.048 49.6012 64.6933 52.6331 62.8883 54.6695C61.4246 56.3453 59.293 57.2576 57.1669 57.7529C54.3385 58.3837 51.4032 58.3999 48.5309 58.1197C45.83 57.8117 43.0192 57.1022 40.9343 55.2621C39.1513 53.7139 38.2806 51.3014 38.3669 48.9735C38.3875 48.5803 38.779 48.306 39.1558 48.3383C40.2348 48.3297 41.3142 48.3266 42.3932 48.34C42.8243 48.3091 43.144 48.6817 43.166 49.088C43.365 50.3912 43.8548 51.7593 44.9913 52.5317C47.1847 53.9469 49.9371 53.85 52.4486 53.8895C54.529 53.7974 56.8647 53.7695 58.5629 52.3942C59.4587 51.6098 59.724 50.2973 59.482 49.1685C59.2198 48.2152 58.2225 47.7711 57.3663 47.4806C52.9721 46.0909 48.2022 46.5951 43.8507 45.0232C42.0838 44.3989 40.3754 43.2185 39.6968 41.4035C38.7498 38.8346 39.1836 35.657 41.1777 33.6897C43.122 31.7321 45.9283 30.9782 48.5969 30.7087Z" fill="#81CD39"/>
</svg>
