<svg width="90" height="90" viewBox="0 0 90 90" fill="none" xmlns="http://www.w3.org/2000/svg">
<path d="M21.0938 0.03125H68.9062C80.5387 0.03125 89.9688 9.46125 89.9688 21.0938V68.9062C89.9688 80.5387 80.5387 89.9688 68.9062 89.9688H21.0938C9.46125 89.9688 0.03125 80.5387 0.03125 68.9062V21.0938C0.03125 9.46125 9.46125 0.03125 21.0938 0.03125Z" fill="#E4E4E4" stroke="#3A3A3A" stroke-width="0.0625"/>
<path d="M51.5277 45.1037C51.5277 48.7086 48.6055 51.6312 45.0002 51.6312C41.3953 51.6312 38.4727 48.7086 38.4727 45.1037C38.4727 41.4988 41.395 38.5762 45.0002 38.5762C48.6055 38.5762 51.5277 41.4988 51.5277 45.1037Z" fill="#3A3A3A" stroke="#3A3A3A" stroke-width="0.0625"/>
<path d="M45.0007 31.7683C53.8066 31.7683 61.9871 33.0318 68.1553 35.1556C75.587 37.7139 80.1562 41.592 80.1562 45.1038C80.1562 48.7632 75.3138 52.8832 67.333 55.5273C61.2995 57.5262 53.3598 58.5697 45.0007 58.5697C36.4303 58.5697 28.3145 57.5902 22.2128 55.5051C14.4932 52.8666 9.84375 48.6936 9.84375 45.1038C9.84375 41.6205 14.2066 37.7723 21.5339 35.2178C27.7249 33.0592 36.1072 31.7683 44.9993 31.7683H45.0007Z" stroke="#3A3A3A" stroke-width="0.556938"/>
<path d="M33.3917 38.4743C37.7912 30.8461 42.9722 24.3907 47.8933 20.1087C53.8221 14.9488 59.4647 12.928 62.5064 14.6819C65.6764 16.5101 66.8264 22.7637 65.1301 30.998C63.8486 37.2231 60.7851 44.6221 56.6089 51.8635C52.3272 59.2878 47.4247 65.829 42.5707 70.0717C36.4285 75.4407 30.4903 77.3838 27.3807 75.5905C24.3633 73.8517 23.2094 68.149 24.6572 60.5253C25.8802 54.0837 28.9497 46.1774 33.3903 38.4743H33.3917Z" stroke="#3A3A3A" stroke-width="0.556938"/>
<path d="M33.4026 51.883C28.9908 44.2632 25.9871 36.5492 24.7334 30.1473C23.2242 22.4336 24.2911 16.5362 27.3304 14.777C30.4976 12.9432 36.4893 15.0702 42.776 20.6523C47.5291 24.8724 52.4098 31.2206 56.598 38.455C60.892 45.8723 64.1102 53.3869 65.3621 59.7109C66.9462 67.7138 65.6641 73.8286 62.5573 75.6268C59.543 77.372 54.0267 75.5245 48.1447 70.4627C43.175 66.1863 37.8579 59.5787 33.4026 51.883Z" stroke="#3A3A3A" stroke-width="0.556938"/>
</svg>
