<svg width="90" height="90" viewBox="0 0 90 90" fill="none" xmlns="http://www.w3.org/2000/svg">
<path d="M68.9062 0H21.0938C9.44399 0 0 9.44399 0 21.0938V68.9062C0 80.556 9.44399 90 21.0938 90H68.9062C80.556 90 90 80.556 90 68.9062V21.0938C90 9.44399 80.556 0 68.9062 0Z" fill="#E4E4E4"/>
<path d="M19.9024 45.2986L19.8739 48.9844H31.588V82.27H39.8739V48.9844H51.588V45.37C51.588 43.37 51.5455 41.6986 51.4882 41.6557C51.4453 41.5988 44.3166 41.57 35.6738 41.5844L19.9453 41.6273L19.9024 45.2986ZM72.6213 41.5225C74.9068 42.0941 76.6498 43.1084 78.2498 44.7653C79.0784 45.6512 80.3068 47.2656 80.407 47.6513C80.4355 47.7655 76.5212 50.3942 74.1499 51.8655C74.0641 51.9228 73.721 51.5512 73.3353 50.9799C72.1783 49.2941 70.964 48.5654 69.1067 48.437C66.3782 48.2511 64.6211 49.6798 64.6355 52.0655C64.6355 52.7655 64.7354 53.1796 65.0212 53.7512C65.621 54.994 66.7354 55.7369 70.2356 57.2511C76.6783 60.0228 79.4353 61.8512 81.1498 64.4511C83.0641 67.3511 83.4927 71.9798 82.1926 75.4226C80.7642 79.1654 77.2211 81.7082 72.2353 82.5512C70.6926 82.8227 67.0353 82.7798 65.3784 82.4799C61.764 81.8369 58.3355 80.0513 56.2212 77.7085C55.3926 76.7941 53.7782 74.4084 53.8784 74.2368C53.921 74.1798 54.2926 73.9513 54.7067 73.7084C55.1068 73.4799 56.6213 72.6084 58.0497 71.7797L60.6355 70.2796L61.1783 71.0798C61.9355 72.2368 63.5925 73.8227 64.5927 74.3511C67.4639 75.8656 71.407 75.6511 73.3497 73.9084C74.1784 73.1512 74.5211 72.3654 74.5211 71.2084C74.5211 70.1654 74.3925 69.7083 73.8496 68.9226C73.1497 67.9227 71.7213 67.0797 67.6639 65.3226C63.0212 63.3225 61.0211 62.0798 59.1927 60.1082C58.1355 58.9656 57.1353 57.1368 56.7212 55.6082C56.3784 54.337 56.2926 51.1511 56.564 49.8654C57.521 45.3798 60.9069 42.2513 65.7925 41.3225C67.3784 41.0226 71.0639 41.1368 72.6213 41.5225Z" fill="#007ACC"/>
</svg>
