<svg width="39" height="38" viewBox="0 0 39 38" fill="none" xmlns="http://www.w3.org/2000/svg">
<path d="M19.5 0C16.9392 0 14.4035 0.503651 12.0377 1.4822C9.67182 2.46074 7.52216 3.89502 5.71142 5.70313C2.05446 9.35479 0 14.3075 0 19.4717C0 28.0782 5.5965 35.3801 13.338 37.9698C14.313 38.1256 14.625 37.522 14.625 36.9963V33.7055C9.2235 34.8738 8.073 31.0963 8.073 31.0963C7.176 28.8376 5.9085 28.234 5.9085 28.234C4.134 27.0267 6.045 27.0657 6.045 27.0657C7.995 27.202 9.0285 29.0713 9.0285 29.0713C10.725 32.031 13.5915 31.1547 14.703 30.6874C14.8785 29.4218 15.3855 28.565 15.9315 28.0782C11.6025 27.5914 7.059 25.9168 7.059 18.4981C7.059 16.3368 7.8 14.6038 9.0675 13.2213C8.8725 12.7345 8.19 10.7094 9.2625 8.08076C9.2625 8.08076 10.9005 7.55502 14.625 10.0669C16.1655 9.6385 17.8425 9.42431 19.5 9.42431C21.1575 9.42431 22.8345 9.6385 24.375 10.0669C28.0995 7.55502 29.7375 8.08076 29.7375 8.08076C30.81 10.7094 30.1275 12.7345 29.9325 13.2213C31.2 14.6038 31.941 16.3368 31.941 18.4981C31.941 25.9363 27.378 27.5719 23.0295 28.0587C23.7315 28.6624 24.375 29.8501 24.375 31.661V36.9963C24.375 37.522 24.687 38.1451 25.6815 37.9698C33.423 35.3606 39 28.0782 39 19.4717C39 16.9146 38.4956 14.3826 37.5157 12.0202C36.5357 9.65779 35.0993 7.51125 33.2886 5.70313C31.4778 3.89502 29.3282 2.46074 26.9623 1.4822C24.5965 0.503651 22.0608 0 19.5 0Z" fill="#E4E4E4"/>
</svg>
