<svg width="24" height="38" viewBox="0 0 24 38" fill="none" xmlns="http://www.w3.org/2000/svg">
<path d="M3.42857 38C2.48571 38 1.67857 37.6617 1.00714 36.9852C0.335714 36.3087 0 35.4955 0 34.5455V3.45455C0 2.50455 0.335714 1.69129 1.00714 1.01477C1.67857 0.338258 2.48571 0 3.42857 0H20.5714C21.5143 0 22.3214 0.338258 22.9929 1.01477C23.6643 1.69129 24 2.50455 24 3.45455V34.5455C24 35.4955 23.6643 36.3087 22.9929 36.9852C22.3214 37.6617 21.5143 38 20.5714 38H3.42857ZM3.42857 29.3636V34.5455H20.5714V29.3636H3.42857ZM12 33.6818C12.4857 33.6818 12.8929 33.5163 13.2214 33.1852C13.55 32.8542 13.7143 32.4439 13.7143 31.9545C13.7143 31.4652 13.55 31.0549 13.2214 30.7239C12.8929 30.3928 12.4857 30.2273 12 30.2273C11.5143 30.2273 11.1071 30.3928 10.7786 30.7239C10.45 31.0549 10.2857 31.4652 10.2857 31.9545C10.2857 32.4439 10.45 32.8542 10.7786 33.1852C11.1071 33.5163 11.5143 33.6818 12 33.6818ZM3.42857 25.9091H20.5714V8.63636H3.42857V25.9091ZM3.42857 5.18182H20.5714V3.45455H3.42857V5.18182Z" fill="#D3D3D3"/>
</svg>
